{"glyphs":{"0":{"ha":746,"x_min":0,"x_max":678,"o":"m 465 941 q 407 949 439 949 l 271 949 q 136 882 136 949 l 136 203 q 160 90 136 122 l 465 941 m 220 68 l 475 68 q 543 203 543 68 l 543 814 q 519 903 543 871 l 220 68 m 203 0 q 0 203 0 0 l 0 475 q 68 543 0 543 l 68 814 q 271 1017 68 1017 l 407 1017 q 610 814 610 1017 l 610 543 q 678 475 678 543 l 678 203 q 475 0 678 0 l 203 0 z "},"1":{"ha":407,"x_min":0,"x_max":339,"o":"m 339 0 l 203 0 l 203 932 l 0 882 l 0 949 l 271 1017 l 271 543 q 339 475 339 543 l 339 0 z "},"2":{"ha":746,"x_min":0,"x_max":678,"o":"m 68 949 l 68 1017 l 407 1017 q 610 814 610 1017 l 610 678 q 407 475 610 475 l 271 475 q 136 339 136 475 l 136 68 l 678 68 l 678 0 l 0 0 l 0 339 q 203 543 0 543 l 407 543 q 543 678 543 543 l 543 814 q 407 949 543 949 l 68 949 z "},"3":{"ha":746,"x_min":0,"x_max":678,"o":"m 68 949 l 68 1017 l 407 1017 q 610 814 610 1017 l 610 678 q 543 508 610 543 q 678 339 678 475 l 678 203 q 475 0 678 0 l 0 0 l 0 68 l 407 68 q 543 203 543 68 l 543 339 q 407 475 543 475 l 136 475 l 136 543 l 407 543 q 543 678 543 543 l 543 814 q 407 949 543 949 l 68 949 z "},"4":{"ha":746,"x_min":0,"x_max":678,"o":"m 678 0 l 543 0 l 543 475 l 203 475 q 0 678 0 475 l 0 1017 l 68 1017 l 68 678 q 203 543 68 543 l 407 543 l 543 543 l 543 678 l 543 1017 l 610 1017 l 610 543 q 678 475 678 543 l 678 0 z "},"5":{"ha":746,"x_min":0,"x_max":678,"o":"m 678 949 l 136 949 l 136 543 l 475 543 q 678 339 678 543 l 678 203 q 475 0 678 0 l 0 0 l 0 68 l 475 68 q 543 203 543 68 l 543 339 q 475 475 543 475 l 68 475 l 68 1017 l 678 1017 l 678 949 z "},"6":{"ha":746,"x_min":0,"x_max":678,"o":"m 203 0 q 0 203 0 0 l 0 475 q 68 543 0 543 l 68 814 q 271 1017 68 1017 l 610 1017 l 610 949 l 271 949 q 136 814 136 949 l 136 610 l 136 543 l 203 543 l 475 543 q 678 339 678 543 l 678 203 q 475 0 678 0 l 203 0 m 475 68 q 543 203 543 68 l 543 339 q 475 475 543 475 l 203 475 q 136 339 136 475 l 136 203 q 203 68 136 68 l 475 68 z "},"7":{"ha":746,"x_min":0,"x_max":678,"o":"m 610 543 q 678 475 678 543 l 678 0 l 543 0 l 543 949 l 0 949 l 0 1017 l 610 1017 l 610 543 z "},"8":{"ha":746,"x_min":0,"x_max":678,"o":"m 203 0 q 0 203 0 0 l 0 475 q 68 543 0 543 l 68 814 q 271 1017 68 1017 l 407 1017 q 610 814 610 1017 l 610 543 q 678 475 678 543 l 678 203 q 475 0 678 0 l 203 0 m 475 68 q 543 232 543 68 l 543 357 q 475 475 543 475 l 203 475 q 136 339 136 475 l 136 203 q 203 68 136 68 l 475 68 m 475 543 q 543 678 543 543 l 543 814 q 407 949 543 949 l 271 949 q 136 814 136 949 l 136 678 q 203 543 136 543 l 475 543 z "},"9":{"ha":746,"x_min":0,"x_max":678,"o":"m 543 475 l 203 475 q 0 678 0 475 l 0 814 q 203 1017 0 1017 l 407 1017 q 610 814 610 1017 l 610 543 q 678 475 678 543 l 678 203 q 475 0 678 0 l 68 0 l 68 68 l 475 68 q 543 203 543 68 l 543 475 m 543 543 l 543 814 q 407 949 543 949 l 203 949 q 68 834 68 949 l 68 678 q 203 543 68 543 l 543 543 z "},"\"":{"ha":339,"x_min":0,"x_max":271,"o":"m 68 1017 l 68 746 l 0 746 l 0 1017 l 68 1017 m 271 1017 l 271 746 l 203 746 l 203 1017 l 271 1017 z "},"#":{"ha":882,"x_min":0,"x_max":814,"o":"m 203 271 l 203 746 l 0 746 l 0 814 l 203 814 l 203 1017 l 271 1017 l 271 814 l 543 814 l 543 1017 l 610 1017 l 610 814 l 814 814 l 814 746 l 610 746 l 610 543 q 678 475 678 543 l 678 271 l 814 271 l 814 203 l 678 203 l 678 0 l 543 0 l 543 203 l 339 203 l 339 0 l 203 0 l 203 203 l 0 203 l 0 271 l 203 271 m 271 746 l 271 543 q 339 475 339 543 l 339 271 l 543 271 l 543 746 l 271 746 z "},"$":{"ha":746,"x_min":0,"x_max":678,"o":"m 271 475 q 68 678 68 475 l 68 746 q 271 949 68 949 l 271 1153 l 339 1153 l 339 949 l 610 949 l 610 882 l 339 882 l 339 543 l 475 543 q 678 339 678 543 l 678 203 q 475 0 678 0 l 407 0 l 407 -136 l 271 -136 l 271 0 l 0 0 l 0 68 l 271 68 l 271 475 m 271 882 q 136 746 136 882 l 136 678 q 271 543 136 543 l 271 882 m 407 68 q 543 203 543 68 l 543 339 q 407 475 543 475 l 407 68 z "},"%":{"ha":814,"x_min":0,"x_max":746,"o":"m 0 0 l 543 1017 l 610 1017 l 366 543 q 407 475 434 543 l 136 0 l 0 0 m 543 0 l 475 0 q 407 68 407 0 l 407 271 q 475 339 407 339 l 678 339 q 746 271 746 339 l 746 68 q 678 0 746 0 l 543 0 m 203 886 q 136 950 203 949 q 68 882 68 950 q 136 814 68 814 q 203 886 203 814 m 643 176 q 575 239 643 243 q 507 172 507 239 q 575 104 507 104 q 643 176 643 104 m 0 949 q 68 1017 0 1017 l 203 1017 q 271 949 271 1017 l 271 814 q 203 746 271 746 l 68 746 q 0 814 0 746 l 0 949 z "},"&":{"ha":882,"x_min":0,"x_max":814,"o":"m 475 68 q 543 232 543 68 l 543 357 q 475 475 543 475 l 203 475 q 136 339 136 475 l 136 203 q 203 68 136 68 l 475 68 m 407 543 q 475 678 475 543 l 475 814 q 339 949 475 949 q 203 814 203 949 l 203 678 q 271 543 203 543 l 407 543 m 667 475 q 678 407 678 447 l 678 203 q 642 68 678 117 l 814 68 l 814 0 l 203 0 q 0 203 0 0 l 0 407 q 136 543 0 543 l 136 814 q 271 1017 136 1017 l 407 1017 q 543 814 543 1017 l 543 543 l 746 543 l 746 475 l 667 475 z "},"'":{"ha":136,"x_min":0,"x_max":68,"o":"m 68 1017 l 68 746 l 0 746 l 0 1017 l 68 1017 z "},"(":{"ha":475,"x_min":0,"x_max":407,"o":"m 203 0 q 0 203 0 0 l 0 475 q 68 543 0 543 l 68 814 q 271 1017 68 1017 l 407 1017 l 407 949 l 271 949 q 136 814 136 949 l 136 203 q 271 68 136 68 l 407 68 l 407 0 l 203 0 z "},")":{"ha":475,"x_min":0,"x_max":407,"o":"m 0 0 l 0 68 l 136 68 q 271 203 271 68 l 271 814 q 136 949 271 949 l 0 949 l 0 1017 l 136 1017 q 339 814 339 1017 l 339 543 q 407 475 407 543 l 407 203 q 203 0 407 0 l 0 0 z "},"*":{"ha":610,"x_min":0,"x_max":543,"o":"m 318 543 l 543 543 l 543 475 l 357 475 l 475 272 l 357 203 l 270 353 l 186 208 l 68 276 l 183 475 l 0 475 l 0 543 l 222 543 l 231 557 l 110 767 l 169 801 l 271 625 l 374 804 l 433 770 l 310 557 l 318 543 z "},"+":{"ha":678,"x_min":0,"x_max":610,"o":"m 271 543 l 271 814 l 339 814 l 339 543 l 610 543 l 610 475 l 407 475 l 407 203 l 271 203 l 271 475 l 0 475 l 0 543 l 271 543 z "},",":{"ha":203,"x_min":0,"x_max":136,"o":"m 68 203 q 136 136 136 203 l 136 68 q 68 -68 136 0 l 68 41 l 68 102 l 0 102 l 0 203 l 68 203 z "},".":{"ha":203,"x_min":0,"x_max":136,"o":"m 136 136 l 136 0 l 0 0 l 0 136 l 136 136 z "},"/":{"ha":678,"x_min":0,"x_max":610,"o":"m 0 0 l 543 1017 l 610 1017 l 366 543 q 407 475 434 543 l 136 0 l 0 0 z "},":":{"ha":203,"x_min":0,"x_max":136,"o":"m 136 407 l 136 271 l 0 271 l 0 407 l 136 407 m 136 746 l 136 610 l 0 610 l 0 746 l 136 746 z "},";":{"ha":203,"x_min":0,"x_max":136,"o":"m 0 203 l 0 102 l 68 102 l 68 -68 q 136 68 136 0 l 136 136 q 68 203 136 203 l 0 203 m 136 746 l 136 610 l 0 610 l 0 746 l 136 746 z "},"<":{"ha":475,"x_min":0,"x_max":407,"o":"m 0 560 l 407 882 l 407 814 l 68 543 l 407 271 l 407 136 l 0 475 l 0 560 z "},"=":{"ha":678,"x_min":0,"x_max":610,"o":"m 610 407 l 610 339 l 0 339 l 0 407 l 610 407 m 610 678 l 610 610 l 0 610 l 0 678 l 610 678 z "},">":{"ha":475,"x_min":0,"x_max":407,"o":"m 407 475 l 0 136 l 0 271 l 339 543 l 0 814 l 0 882 l 407 560 l 407 475 z "},"?":{"ha":610,"x_min":0,"x_max":543,"o":"m 203 949 q 68 814 68 949 l 0 814 q 203 1017 0 1017 l 339 1017 q 543 814 543 1017 l 543 678 q 339 475 543 475 q 271 339 271 475 l 271 203 l 136 203 l 136 339 q 339 543 136 543 l 339 543 q 475 678 475 543 l 475 814 q 339 949 475 949 l 203 949 m 271 136 l 271 0 l 136 0 l 136 136 l 271 136 z "},"@":{"ha":746,"x_min":0,"x_max":678,"o":"m 543 746 l 543 814 q 407 949 543 949 l 271 949 q 136 814 136 949 l 136 203 q 271 68 136 68 l 610 68 l 610 0 l 203 0 q 0 203 0 0 l 0 475 q 68 543 0 543 l 68 814 q 271 1017 68 1017 l 407 1017 q 610 814 610 1017 l 610 543 q 678 475 678 543 l 678 407 q 475 203 678 203 l 407 203 q 271 407 271 203 l 271 475 q 339 543 271 543 l 339 610 q 475 746 339 746 l 543 746 m 475 678 q 407 610 407 678 l 407 407 q 475 271 407 271 q 543 407 543 271 l 543 678 l 475 678 z "},"A":{"ha":746,"x_min":0,"x_max":678,"o":"m 136 0 l 0 0 l 0 475 q 68 543 0 543 l 68 949 q 136 1017 68 1017 l 543 1017 q 610 949 610 1017 l 610 543 q 678 475 678 543 l 678 0 l 543 0 l 543 407 q 475 475 543 475 l 203 475 q 136 407 136 475 l 136 0 m 136 610 q 203 543 136 543 l 475 543 q 543 610 543 543 l 543 882 q 475 949 543 949 l 203 949 q 136 882 136 949 l 136 610 z "},"B":{"ha":746,"x_min":0,"x_max":678,"o":"m 0 0 l 0 1017 l 339 1017 q 543 814 543 1017 l 543 543 q 678 339 678 543 l 678 203 q 475 0 678 0 l 0 0 m 407 543 q 475 610 475 543 l 475 814 q 339 949 475 949 l 68 949 l 68 543 l 407 543 m 407 68 q 543 203 543 68 l 543 339 q 407 475 543 475 l 136 475 l 136 68 l 407 68 z "},"C":{"ha":746,"x_min":0,"x_max":678,"o":"m 203 0 q 0 203 0 0 l 0 475 q 68 543 0 543 l 68 814 q 271 1017 68 1017 l 610 1017 l 610 949 l 271 949 q 136 814 136 949 l 136 203 q 203 68 136 68 l 678 68 l 678 0 l 203 0 z "},"D":{"ha":746,"x_min":0,"x_max":678,"o":"m 0 0 l 0 475 q 68 543 0 543 l 68 1017 l 407 1017 q 610 814 610 1017 l 610 543 q 678 475 678 543 l 678 203 q 475 0 678 0 l 0 0 m 407 68 q 543 203 543 68 l 543 814 q 407 949 543 949 l 136 949 l 136 68 l 407 68 z "},"E":{"ha":746,"x_min":0,"x_max":678,"o":"m 678 0 l 0 0 l 0 475 q 68 543 0 543 l 68 1017 l 610 1017 l 610 949 l 136 949 l 136 543 l 543 543 l 543 475 l 136 475 l 136 68 l 678 68 l 678 0 z "},"F":{"ha":678,"x_min":0,"x_max":610,"o":"m 0 0 l 0 475 q 68 543 0 543 l 68 1017 l 610 1017 l 610 949 l 136 949 l 136 543 l 543 543 l 543 475 l 136 475 l 136 0 l 0 0 z "},"G":{"ha":746,"x_min":0,"x_max":678,"o":"m 203 0 q 0 203 0 0 l 0 475 q 68 543 0 543 l 68 814 q 271 1017 68 1017 l 610 1017 l 610 949 l 271 949 q 136 814 136 949 l 136 203 q 271 68 136 68 l 543 68 l 543 407 q 407 475 543 475 l 407 543 l 475 543 q 678 407 678 543 l 678 0 l 203 0 z "},"H":{"ha":746,"x_min":0,"x_max":678,"o":"m 136 407 l 136 0 l 0 0 l 0 475 q 68 543 0 543 l 68 1017 l 136 1017 l 136 610 q 203 543 136 543 l 475 543 q 543 610 543 543 l 543 1017 l 610 1017 l 610 543 q 678 475 678 543 l 678 0 l 543 0 l 543 407 q 475 475 543 475 l 203 475 q 136 407 136 475 z "},"I":{"ha":203,"x_min":0,"x_max":136,"o":"m 136 0 l 0 0 l 0 1017 l 68 1017 l 68 543 q 136 475 136 543 l 136 0 z "},"J":{"ha":678,"x_min":0,"x_max":610,"o":"m 68 949 l 68 1017 l 543 1017 l 543 543 q 610 475 610 543 l 610 203 q 407 0 610 0 l 203 0 q 0 203 0 0 l 0 475 q 68 543 0 543 q 136 475 136 543 l 136 203 q 271 68 136 68 l 407 68 q 475 203 475 68 l 475 949 l 68 949 z "},"K":{"ha":746,"x_min":0,"x_max":678,"o":"m 68 1017 l 136 1017 l 136 543 l 543 1017 l 610 1017 l 271 610 l 678 0 l 543 0 l 203 475 l 136 475 l 136 0 l 0 0 l 0 475 q 68 543 0 543 l 68 1017 z "},"L":{"ha":746,"x_min":0,"x_max":678,"o":"m 678 0 l 0 0 l 0 1017 l 68 1017 l 68 610 l 68 543 q 136 475 136 543 l 136 136 q 203 68 136 68 l 678 68 l 678 0 z "},"M":{"ha":882,"x_min":0,"x_max":814,"o":"m 136 0 l 0 0 l 0 475 q 68 543 0 543 l 68 1017 l 136 1017 l 407 407 l 678 1017 l 746 1017 l 746 543 q 814 475 814 543 l 814 0 l 678 0 l 678 882 l 407 271 l 136 882 l 136 0 z "},"N":{"ha":746,"x_min":0,"x_max":678,"o":"m 136 0 l 0 0 l 0 475 q 68 543 0 543 l 68 1017 l 136 1017 l 543 136 l 543 1017 l 610 1017 l 610 543 q 678 475 678 543 l 678 0 l 543 0 l 136 882 l 136 0 z "},"O":{"ha":746,"x_min":0,"x_max":678,"o":"m 203 0 q 0 203 0 0 l 0 475 q 68 543 0 543 l 68 814 q 271 1017 68 1017 l 407 1017 q 610 814 610 1017 l 610 543 q 678 475 678 543 l 678 203 q 475 0 678 0 l 203 0 m 136 203 q 203 68 136 68 l 475 68 q 543 203 543 68 l 543 678 l 543 814 q 407 949 543 949 l 271 949 q 136 882 136 949 l 136 203 z "},"P":{"ha":746,"x_min":0,"x_max":678,"o":"m 136 0 l 0 0 l 0 475 q 68 543 0 543 l 68 1017 l 475 1017 q 678 814 678 1017 l 678 678 q 475 475 678 475 l 136 475 l 136 0 m 475 543 q 610 678 610 543 l 610 834 q 475 949 610 949 l 136 949 l 136 543 l 475 543 z "},"Q":{"ha":746,"x_min":0,"x_max":678,"o":"m 203 0 q 0 203 0 0 l 0 475 q 68 543 0 543 l 68 814 q 271 1017 68 1017 l 407 1017 q 610 814 610 1017 l 610 543 q 678 475 678 543 l 678 0 l 475 0 l 203 0 m 136 203 q 203 68 136 68 l 475 68 l 475 203 q 543 271 475 271 l 543 678 l 543 814 q 407 949 543 949 l 271 949 q 136 882 136 949 l 136 203 z "},"R":{"ha":746,"x_min":0,"x_max":678,"o":"m 475 543 q 610 678 610 543 l 610 834 q 475 949 610 949 l 136 949 l 136 543 l 475 543 m 339 475 l 136 475 l 136 0 l 0 0 l 0 475 q 68 543 0 543 l 68 1017 l 475 1017 q 678 814 678 1017 l 678 678 q 475 475 678 475 l 678 0 l 543 0 l 339 475 z "},"S":{"ha":746,"x_min":0,"x_max":678,"o":"m 271 949 q 136 814 136 949 l 136 678 q 271 543 136 543 l 475 543 q 678 339 678 543 l 678 203 q 475 0 678 0 l 0 0 l 0 68 l 407 68 q 543 203 543 68 l 543 339 q 407 475 543 475 l 271 475 q 68 678 68 475 l 68 814 q 271 1017 68 1017 l 610 1017 l 610 949 l 271 949 l 271 949 z "},"T":{"ha":746,"x_min":0,"x_max":678,"o":"m 339 949 l 339 543 q 407 475 407 543 l 407 0 l 271 0 l 271 949 l 0 949 l 0 1017 l 678 1017 l 678 949 l 339 949 z "},"U":{"ha":746,"x_min":0,"x_max":678,"o":"m 136 203 q 203 68 136 68 l 475 68 q 543 203 543 68 l 543 1017 l 610 1017 l 610 543 q 678 475 678 543 l 678 203 q 475 0 678 0 l 203 0 q 0 203 0 0 l 0 475 q 68 543 0 543 l 68 1017 l 136 1017 l 136 203 z "},"V":{"ha":746,"x_min":0,"x_max":678,"o":"m 0 543 l 0 1017 l 68 1017 l 68 475 l 339 203 l 610 475 l 610 1017 l 678 1017 l 678 339 l 339 0 l 0 339 l 0 543 z "},"W":{"ha":882,"x_min":0,"x_max":814,"o":"m 543 0 q 407 37 456 0 q 271 0 357 0 l 203 0 q 0 203 0 0 l 0 475 q 68 543 0 543 l 68 1017 l 136 1017 l 136 203 q 203 68 136 68 l 271 68 q 339 203 339 68 l 339 475 q 407 543 339 543 q 475 475 475 543 l 475 203 q 543 68 475 68 l 610 68 q 678 203 678 68 l 678 1017 l 746 1017 l 746 543 q 814 475 814 543 l 814 203 q 610 0 814 0 l 543 0 l 543 0 z "},"X":{"ha":746,"x_min":0,"x_max":678,"o":"m 68 1017 l 136 1017 l 339 543 l 543 1017 l 610 1017 l 420 566 l 678 0 l 543 0 l 339 475 l 136 0 l 0 0 l 253 572 l 68 1017 z "},"Y":{"ha":746,"x_min":0,"x_max":678,"o":"m 0 1017 l 68 1017 l 68 678 q 203 543 68 543 l 543 543 l 543 1017 l 610 1017 l 610 543 q 678 475 678 543 l 678 203 q 475 0 678 0 l 68 0 l 68 68 l 407 68 q 543 203 543 68 l 543 475 l 203 475 q 0 678 0 475 l 0 1017 z "},"Z":{"ha":746,"x_min":0,"x_max":678,"o":"m 68 949 l 68 1017 l 678 1017 l 678 929 l 136 203 l 136 136 q 271 68 136 68 l 678 68 l 678 0 l 0 0 l 0 136 l 610 949 l 68 949 z "},"[":{"ha":407,"x_min":0,"x_max":339,"o":"m 339 0 l 0 0 l 0 475 q 68 543 0 543 l 68 1017 l 339 1017 l 339 949 l 136 949 l 136 68 l 339 68 l 339 0 z "},"\\":{"ha":678,"x_min":0,"x_max":610,"o":"m 610 0 l 475 0 l 0 1017 l 68 1017 l 300 543 q 390 475 368 543 l 610 0 z "},"]":{"ha":407,"x_min":0,"x_max":339,"o":"m 0 0 l 0 68 l 203 68 l 203 949 l 0 949 l 0 1017 l 271 1017 l 271 543 q 339 475 339 543 l 339 0 l 0 0 z "},"^":{"ha":610,"x_min":0,"x_max":543,"o":"m 68 543 l 0 543 l 271 1017 l 543 543 l 475 543 l 271 882 l 68 543 z "},"_":{"ha":678,"x_min":0,"x_max":610,"o":"m 610 68 l 610 0 l 0 0 l 0 68 l 610 68 z "},"`":{"ha":271,"x_min":0,"x_max":203,"o":"m 68 1017 l 203 746 l 136 746 l 0 1017 l 68 1017 z "},"a":{"ha":678,"x_min":0,"x_max":610,"o":"m 475 746 l 271 746 q 136 610 136 746 l 136 203 q 203 68 136 68 l 475 68 l 475 746 m 203 0 q 0 203 0 0 l 0 475 q 68 543 0 543 l 68 610 q 271 814 68 814 l 543 814 l 543 543 q 610 475 610 543 l 610 0 l 203 0 z "},"b":{"ha":678,"x_min":0,"x_max":610,"o":"m 136 777 q 271 814 185 814 l 339 814 q 543 610 543 814 l 543 543 q 610 475 610 543 l 610 203 q 407 0 610 0 l 0 0 l 0 475 q 68 543 0 543 l 68 1017 l 136 1017 l 136 777 m 136 68 l 339 68 q 475 203 475 68 l 475 610 q 339 746 475 746 l 271 746 q 136 678 136 746 l 136 68 z "},"c":{"ha":678,"x_min":0,"x_max":610,"o":"m 203 0 q 0 203 0 0 l 0 475 q 68 543 0 543 l 68 610 q 271 814 68 814 l 610 814 l 610 746 l 271 746 q 136 610 136 746 l 136 203 q 203 68 136 68 l 610 68 l 610 0 l 203 0 z "},"d":{"ha":678,"x_min":0,"x_max":610,"o":"m 543 543 q 610 475 610 543 l 610 0 l 203 0 q 0 203 0 0 l 0 475 q 68 543 0 543 l 68 610 q 271 814 68 814 l 339 814 q 475 777 425 814 l 475 1017 l 543 1017 l 543 543 m 475 678 q 339 746 475 746 l 271 746 q 136 610 136 746 l 136 203 q 271 68 136 68 l 475 68 l 475 678 z "},"e":{"ha":678,"x_min":0,"x_max":610,"o":"m 203 0 q 0 203 0 0 l 0 475 q 68 543 0 543 l 68 610 q 271 814 68 814 l 339 814 q 543 610 543 814 l 543 543 q 610 475 610 543 l 610 339 l 136 339 l 136 203 q 271 68 136 68 l 543 68 l 543 0 l 203 0 m 136 407 l 475 407 l 475 610 q 339 746 475 746 l 271 746 q 136 610 136 746 l 136 407 z "},"f":{"ha":610,"x_min":0,"x_max":543,"o":"m 203 0 l 68 0 l 68 475 q 136 543 68 543 l 136 746 l 0 746 l 0 814 l 136 814 q 339 1017 136 1017 l 543 1017 l 543 949 l 339 949 q 203 814 203 949 l 407 814 l 407 746 l 203 746 l 203 0 z "},"g":{"ha":678,"x_min":0,"x_max":610,"o":"m 543 543 q 610 475 610 543 l 610 0 q 407 -203 610 -203 l 68 -203 l 68 -136 l 339 -136 q 475 0 475 -136 l 203 0 q 0 203 0 0 l 0 475 q 68 543 0 543 l 68 610 q 271 814 68 814 l 339 814 q 475 777 425 814 l 475 814 l 543 814 l 543 543 m 475 611 q 339 746 475 746 l 271 746 q 136 610 136 746 l 136 203 q 203 68 136 68 l 475 68 l 475 611 z "},"h":{"ha":678,"x_min":0,"x_max":610,"o":"m 136 610 l 136 0 l 0 0 l 0 475 q 68 543 0 543 l 68 1017 l 136 1017 l 136 777 q 271 814 185 814 l 339 814 q 543 610 543 814 l 543 543 q 610 475 610 543 l 610 0 l 475 0 l 475 610 q 339 746 475 746 l 271 746 q 136 610 136 746 z "},"i":{"ha":203,"x_min":0,"x_max":136,"o":"m 136 0 l 0 0 l 0 814 l 68 814 l 68 543 q 136 475 136 543 l 136 0 m 68 1017 l 68 949 l 0 949 l 0 1017 l 68 1017 z "},"j":{"ha":339,"x_min":0,"x_max":271,"o":"m 203 814 l 203 543 q 136 475 136 543 l 136 0 q 0 -136 136 -136 l 0 -203 l 68 -203 q 271 0 271 -203 l 271 814 l 203 814 m 271 1017 l 271 949 l 203 949 l 203 1017 l 271 1017 z "},"k":{"ha":678,"x_min":0,"x_max":610,"o":"m 0 475 q 68 543 0 543 l 68 1017 l 136 1017 l 136 0 l 0 0 l 0 475 m 543 814 l 203 543 l 136 543 l 136 475 l 203 475 l 475 0 l 610 0 l 309 543 l 543 726 l 543 814 z "},"l":{"ha":271,"x_min":0,"x_max":203,"o":"m 136 1017 l 136 203 q 203 68 136 68 l 203 0 q 0 203 0 0 l 0 475 q 68 543 0 543 l 68 1017 l 136 1017 z "},"m":{"ha":949,"x_min":0,"x_max":882,"o":"m 136 610 l 136 0 l 0 0 l 0 475 q 68 543 0 543 l 68 814 l 136 814 l 136 777 q 271 814 185 814 q 441 743 392 814 q 610 814 490 814 q 814 610 814 814 l 814 543 q 882 475 882 543 l 882 0 l 746 0 l 746 610 q 610 746 746 746 q 475 610 475 746 l 475 543 q 543 475 543 543 l 543 0 l 407 0 l 407 610 q 271 746 407 746 q 136 610 136 746 z "},"n":{"ha":678,"x_min":0,"x_max":610,"o":"m 136 610 l 136 0 l 0 0 l 0 475 q 68 543 0 543 l 68 814 l 136 814 l 136 777 q 271 814 185 814 l 339 814 q 543 610 543 814 l 543 543 q 610 475 610 543 l 610 0 l 475 0 l 475 610 q 339 746 475 746 l 271 746 q 136 610 136 746 z "},"o":{"ha":678,"x_min":0,"x_max":610,"o":"m 203 0 q 0 203 0 0 l 0 475 q 68 543 0 543 l 68 610 q 271 814 68 814 l 339 814 q 543 610 543 814 l 543 543 q 610 475 610 543 l 610 203 q 407 0 610 0 l 203 0 m 136 203 q 203 68 136 68 l 407 68 q 475 203 475 68 l 475 610 q 339 746 475 746 l 271 746 q 136 678 136 746 l 136 203 z "},"p":{"ha":678,"x_min":0,"x_max":610,"o":"m 136 68 l 407 68 q 475 203 475 68 l 475 610 q 339 746 475 746 l 136 746 l 136 68 m 0 475 q 68 543 0 543 l 68 814 l 339 814 q 543 610 543 814 l 543 543 q 610 475 610 543 l 610 203 q 407 0 610 0 l 136 0 l 136 -203 l 0 -203 l 0 475 z "},"q":{"ha":678,"x_min":0,"x_max":610,"o":"m 475 610 q 339 746 475 746 l 271 746 q 136 610 136 746 l 136 203 q 203 68 136 68 l 475 68 l 475 610 m 610 -203 l 475 -203 l 475 0 l 203 0 q 0 203 0 0 l 0 475 q 68 543 0 543 l 68 610 q 271 814 68 814 l 339 814 q 543 610 543 814 l 543 543 q 610 475 610 543 l 610 -203 z "},"r":{"ha":610,"x_min":0,"x_max":543,"o":"m 136 610 l 136 0 l 0 0 l 0 475 q 68 543 0 543 l 68 814 l 136 814 l 136 777 q 271 814 185 814 l 543 814 l 543 746 l 271 746 q 136 610 136 746 z "},"s":{"ha":678,"x_min":0,"x_max":610,"o":"m 136 648 q 271 543 136 543 l 407 543 q 610 339 610 543 l 610 203 q 407 0 610 0 l 0 0 l 0 68 l 339 68 q 475 203 475 68 l 475 339 q 339 475 475 475 l 271 475 q 68 648 68 475 q 271 814 68 814 l 543 814 l 543 746 l 271 746 q 136 648 136 746 z "},"t":{"ha":543,"x_min":0,"x_max":475,"o":"m 203 1017 l 203 814 l 407 814 l 407 746 l 203 746 l 203 203 q 339 68 203 68 l 475 68 l 475 0 l 271 0 q 68 203 68 0 l 68 475 q 136 543 68 543 l 136 746 l 0 746 l 0 814 l 136 814 l 136 1017 l 203 1017 z "},"u":{"ha":678,"x_min":0,"x_max":610,"o":"m 136 203 q 203 68 136 68 l 407 68 q 475 203 475 68 l 475 814 l 543 814 l 543 543 q 610 475 610 543 l 610 203 q 407 0 610 0 l 203 0 q 0 203 0 0 l 0 475 q 68 543 0 543 l 68 814 l 136 814 l 136 203 z "},"v":{"ha":678,"x_min":0,"x_max":610,"o":"m 68 814 l 68 543 l 307 203 l 543 543 l 543 814 l 610 814 l 610 407 l 307 0 l 0 407 l 0 814 l 68 814 z "},"w":{"ha":882,"x_min":0,"x_max":814,"o":"m 543 0 q 407 37 456 0 q 271 0 357 0 l 203 0 q 0 203 0 0 l 0 475 q 68 543 0 543 l 68 814 l 136 814 l 136 203 q 203 68 136 68 l 271 68 q 339 203 339 68 l 339 475 q 407 543 339 543 q 475 475 475 543 l 475 203 q 543 68 475 68 l 610 68 q 678 203 678 68 l 678 814 l 746 814 l 746 543 q 814 475 814 543 l 814 203 q 610 0 814 0 l 543 0 l 543 0 z "},"x":{"ha":678,"x_min":0,"x_max":610,"o":"m 136 814 l 136 678 q 264 543 136 546 l 339 543 q 475 678 475 543 l 475 814 l 543 814 l 543 678 q 496 530 543 581 q 610 339 610 492 l 610 0 l 475 0 l 475 339 q 346 475 475 471 l 339 475 l 271 475 l 264 475 q 136 339 136 471 l 136 0 l 0 0 l 0 339 q 114 530 0 491 q 68 678 68 581 l 68 814 l 136 814 z "},"y":{"ha":678,"x_min":0,"x_max":610,"o":"m 475 7 q 407 0 444 0 l 203 0 q 0 203 0 0 l 0 475 q 68 543 0 543 l 68 814 l 136 814 l 136 203 q 203 68 136 68 l 407 68 q 475 203 475 68 l 475 814 l 543 814 l 543 543 q 610 475 610 543 l 610 0 q 407 -203 610 -203 l 68 -203 l 68 -136 l 339 -136 q 475 0 475 -136 l 475 7 z "},"z":{"ha":678,"x_min":0,"x_max":610,"o":"m 68 746 l 68 814 l 610 814 l 610 726 l 136 183 l 136 136 q 271 68 136 68 l 610 68 l 610 0 l 0 0 l 0 136 l 543 746 l 68 746 z "},"{":{"ha":513,"x_min":0,"x_max":445,"o":"m 445 68 l 445 0 l 309 0 q 106 203 106 0 l 106 407 l 0 507 l 106 610 l 106 814 q 309 1017 106 1017 l 445 1017 l 445 949 l 309 949 q 174 814 174 949 l 174 642 l 174 543 q 241 475 241 543 l 241 203 q 377 68 241 68 l 445 68 z "},"|":{"ha":203,"x_min":0,"x_max":136,"o":"m 136 0 l 0 0 l 0 1017 l 68 1017 l 68 543 q 136 475 136 543 l 136 0 z "},"}":{"ha":509,"x_min":0,"x_max":445,"o":"m 68 68 q 203 203 203 68 l 203 475 q 271 543 203 543 l 271 642 l 271 814 q 136 949 271 949 l 0 949 l 0 1017 l 136 1017 q 339 814 339 1017 l 339 610 l 445 507 l 339 407 l 339 203 q 136 0 339 0 l 0 0 l 0 68 l 68 68 z "},"~":{"ha":746,"x_min":0,"x_max":678,"o":"m 0 475 q 339 610 170 661 q 678 610 509 492 q 339 475 509 407 q 0 475 170 576 z "},"¡":{"ha":203,"x_min":0,"x_max":136,"o":"m 136 0 l 0 0 l 0 814 l 68 814 l 68 543 q 136 475 136 543 l 136 0 m 68 1017 l 68 949 l 0 949 l 0 1017 l 68 1017 z "},"¢":{"ha":746,"x_min":0,"x_max":678,"o":"m 407 949 l 407 814 l 678 814 l 678 746 l 407 746 l 407 543 q 475 475 475 543 l 475 68 l 678 68 l 678 0 l 407 0 l 407 -136 l 339 -136 l 339 0 l 203 0 q 0 203 0 0 l 0 475 q 68 543 0 543 l 68 610 q 271 814 68 814 l 339 814 l 339 949 l 407 949 m 136 610 l 136 203 q 203 68 136 68 l 339 68 l 339 746 l 271 746 q 136 610 136 746 z "},"£":{"ha":678,"x_min":0,"x_max":610,"o":"m 271 0 l 136 0 l 136 475 q 203 543 136 543 l 203 746 l 68 746 l 68 814 l 203 814 q 407 1017 203 1017 l 610 1017 l 610 949 l 407 949 q 271 814 271 949 l 475 814 l 475 746 l 271 746 l 271 0 m 543 68 l 543 0 l 0 0 l 0 68 l 543 68 z "},"¤":{"ha":543,"x_min":0,"x_max":480,"o":"m 240 879 q 168 849 198 879 q 138 777 138 819 q 168 705 138 735 q 240 675 198 675 q 312 705 282 675 q 342 777 342 735 q 312 849 342 819 q 240 879 282 879 m 334 919 l 432 1017 l 480 969 l 382 871 q 410 777 410 830 q 382 684 410 724 l 480 585 l 432 537 l 334 635 q 240 608 293 608 q 146 635 187 608 l 48 537 l 0 585 l 98 684 q 71 777 71 724 q 98 871 71 830 l 0 969 l 48 1017 l 146 919 q 240 947 187 947 q 334 919 293 947 z "},"¥":{"ha":678,"x_min":0,"x_max":610,"o":"m 339 543 l 339 543 q 407 475 407 543 l 407 0 l 271 0 l 271 543 l 0 1017 l 68 1017 l 305 610 l 543 1017 l 610 1017 l 339 543 m 610 543 l 610 475 l 68 475 l 68 543 l 610 543 m 610 339 l 610 271 l 68 271 l 68 339 l 610 339 z "},"¦":{"ha":203,"x_min":0,"x_max":136,"o":"m 136 475 l 136 0 l 0 0 l 0 475 l 136 475 m 68 1017 l 68 610 l 0 610 l 0 1017 l 68 1017 z "},"§":{"ha":678,"x_min":0,"x_max":543,"o":"m 68 0 l 68 68 l 271 68 q 407 203 407 68 l 407 271 l 203 271 q 0 475 0 271 q 68 543 0 543 l 68 746 l 68 814 q 271 1017 68 1017 l 475 1017 l 475 949 l 271 949 q 136 814 136 949 l 136 746 l 271 746 q 475 543 475 746 q 543 475 543 543 l 543 203 q 339 0 543 0 l 68 0 m 136 543 q 271 339 136 339 l 407 339 l 407 543 q 271 678 407 678 l 136 678 l 136 543 z "},"¨":{"ha":378,"x_min":0,"x_max":309,"o":"m 100 1017 l 100 913 l 0 913 l 0 1017 l 100 1017 m 309 1017 l 309 910 l 203 910 l 203 1017 l 309 1017 z "},"©":{"ha":1085,"x_min":0,"x_max":1017,"o":"m 203 0 q 0 203 0 0 l 0 475 q 68 543 0 543 l 68 814 q 271 1017 68 1017 l 746 1017 q 949 814 949 1017 l 949 543 q 1017 475 1017 543 l 1017 203 q 814 0 1017 0 l 203 0 m 136 203 q 203 68 136 68 l 814 68 q 882 203 882 68 l 882 678 l 882 814 q 746 949 882 949 l 271 949 q 136 882 136 949 l 136 203 m 475 203 q 271 407 271 203 l 271 475 q 339 543 271 543 l 339 610 q 543 814 339 814 l 746 814 l 746 746 l 543 746 q 407 610 407 746 l 407 407 q 475 271 407 271 l 746 271 l 746 203 l 475 203 z "},"ª":{"ha":678,"x_min":0,"x_max":610,"o":"m 339 68 q 475 203 475 68 l 475 339 q 339 475 475 475 l 271 475 q 136 339 136 475 l 136 203 q 271 68 136 68 l 339 68 m 475 7 q 407 0 444 0 l 203 0 q 0 203 0 0 l 0 339 q 203 543 0 543 l 475 543 l 475 610 q 339 746 475 746 l 68 746 l 68 814 l 339 814 q 543 610 543 814 l 543 543 q 610 475 610 543 l 610 0 l 475 0 l 475 7 z "},"«":{"ha":610,"x_min":0,"x_max":543,"o":"m 0 560 l 271 882 l 271 794 l 68 543 l 271 271 l 271 136 l 0 475 l 0 560 m 271 560 l 543 882 l 543 794 l 339 543 l 543 271 l 543 136 l 271 475 l 271 560 z "},"¬":{"ha":678,"x_min":0,"x_max":610,"o":"m 610 1017 l 610 949 l 0 949 l 0 1017 l 610 1017 m 610 1017 l 610 746 l 543 746 l 543 1017 l 610 1017 z "},"®":{"ha":1085,"x_min":0,"x_max":1017,"o":"m 203 0 q 0 203 0 0 l 0 475 q 68 543 0 543 l 68 814 q 271 1017 68 1017 l 746 1017 q 949 814 949 1017 l 949 543 q 1017 475 1017 543 l 1017 203 q 814 0 1017 0 l 203 0 m 136 203 q 203 68 136 68 l 814 68 q 882 203 882 68 l 882 678 l 882 814 q 746 949 882 949 l 271 949 q 136 882 136 949 l 136 203 m 543 543 q 678 645 678 543 q 543 746 678 746 l 407 746 l 407 543 l 543 543 m 407 475 l 407 475 l 407 203 l 271 203 l 271 475 q 339 543 271 543 l 339 814 l 543 814 q 746 645 746 814 q 543 475 746 475 l 746 203 l 610 203 l 407 475 z "},"¯":{"ha":678,"x_min":0,"x_max":610,"o":"m 610 1017 l 610 949 l 0 949 l 0 1017 l 610 1017 z "},"°":{"ha":339,"x_min":0,"x_max":271,"o":"m 271 882 q 232 786 271 825 q 136 746 192 746 q 40 786 79 746 q 0 882 0 825 q 40 978 0 938 q 136 1017 79 1017 q 232 978 192 1017 q 271 882 271 938 m 136 949 q 88 929 108 949 q 68 882 68 909 q 88 834 68 854 q 136 814 108 814 q 183 834 163 814 q 203 882 203 854 q 183 929 203 909 q 136 949 163 949 z "},"±":{"ha":678,"x_min":0,"x_max":610,"o":"m 271 543 l 271 814 l 339 814 l 339 543 l 610 543 l 610 475 l 407 475 l 407 203 l 271 203 l 271 475 l 0 475 l 0 543 l 271 543 m 610 68 l 610 0 l 0 0 l 0 68 l 610 68 z "},"²":{"ha":407,"x_min":0,"x_max":339,"o":"m 34 746 l 34 780 l 203 780 q 305 678 305 780 l 305 610 q 203 509 305 509 l 136 509 q 68 441 68 509 l 68 305 l 339 305 l 339 271 l 0 271 l 0 441 q 102 543 0 543 l 203 543 q 271 610 271 543 l 271 678 q 203 746 271 746 l 34 746 z "},"³":{"ha":407,"x_min":0,"x_max":339,"o":"m 34 746 l 34 780 l 203 780 q 305 678 305 780 l 305 610 q 271 526 305 543 q 339 441 339 509 l 339 373 q 237 271 339 271 l 0 271 l 0 305 l 203 305 q 271 373 271 305 l 271 441 q 203 509 271 509 l 68 509 l 68 543 l 203 543 q 271 610 271 543 l 271 678 q 203 746 271 746 l 34 746 z "},"´":{"ha":271,"x_min":0,"x_max":203,"o":"m 203 1017 l 68 746 l 0 746 l 136 1017 l 203 1017 z "},"µ":{"ha":678,"x_min":0,"x_max":610,"o":"m 0 475 q 68 543 0 543 l 68 814 l 136 814 l 136 203 q 203 68 136 68 l 407 68 q 475 203 475 68 l 475 814 l 543 814 l 543 543 q 610 475 610 543 l 610 -68 l 475 -68 l 475 7 q 407 0 444 0 l 203 0 q 136 7 166 0 l 136 -203 l 0 -203 l 0 475 z "},"¶":{"ha":746,"x_min":0,"x_max":676,"o":"m 203 949 l 203 543 q 271 475 271 543 l 271 0 l 136 0 l 136 819 q 102 814 120 814 q 30 844 60 814 q 0 916 0 873 q 30 987 0 958 q 102 1017 60 1017 q 132 1013 117 1017 l 132 1017 l 676 1017 l 676 949 l 543 949 l 543 543 q 610 475 610 543 l 610 0 l 475 0 l 475 949 l 203 949 z "},"·":{"ha":203,"x_min":0,"x_max":136,"o":"m 136 475 q 116 427 136 447 q 68 407 96 407 q 20 427 40 407 q 0 475 0 447 q 20 523 0 503 q 68 543 40 543 q 116 523 96 543 q 136 475 136 503 z "},"¸":{"ha":407,"x_min":0,"x_max":339,"o":"m 203 0 l 203 -68 q 339 -203 339 -68 q 203 -339 339 -339 l 0 -339 l 0 -271 l 203 -271 q 271 -203 271 -271 q 203 -136 271 -136 l 68 -136 l 68 0 l 203 0 z "},"¹":{"ha":249,"x_min":0,"x_max":170,"o":"m 170 271 l 102 271 l 102 737 l 0 712 l 0 746 l 136 780 l 136 543 q 170 509 170 543 l 170 271 z "},"º":{"ha":407,"x_min":0,"x_max":339,"o":"m 102 271 q 0 373 0 271 l 0 509 q 34 543 0 543 l 34 678 q 136 780 34 780 l 203 780 q 305 678 305 780 l 305 543 q 339 509 339 543 l 339 373 q 237 271 339 271 l 102 271 m 68 373 q 102 305 68 305 l 237 305 q 271 373 271 305 l 271 610 l 271 678 q 203 746 271 746 l 136 746 q 68 712 68 746 l 68 373 z "},"»":{"ha":610,"x_min":0,"x_max":543,"o":"m 543 475 l 271 136 l 271 271 l 475 543 l 271 794 l 271 882 l 543 560 l 543 475 m 271 475 l 0 136 l 0 271 l 203 543 l 0 794 l 0 882 l 271 560 l 271 475 z "},"¼":{"ha":949,"x_min":0,"x_max":882,"o":"m 68 0 l 610 1017 l 678 1017 l 434 543 q 475 475 502 543 l 203 0 l 68 0 m 882 -68 l 814 -68 l 814 170 l 644 170 q 543 271 543 170 l 543 441 l 576 441 l 576 271 q 644 203 576 203 l 746 203 l 814 203 l 814 271 l 814 441 l 848 441 l 848 203 q 882 170 882 203 l 882 -68 m 170 576 l 102 576 l 102 1042 l 0 1017 l 0 1051 l 136 1085 l 136 848 q 170 814 170 848 l 170 576 z "},"½":{"ha":949,"x_min":0,"x_max":882,"o":"m 68 0 l 610 1017 l 678 1017 l 434 543 q 475 475 502 543 l 203 0 l 68 0 m 170 576 l 102 576 l 102 1042 l 0 1017 l 0 1051 l 136 1085 l 136 848 q 170 814 170 848 l 170 576 m 576 407 l 576 441 l 746 441 q 848 339 848 441 l 848 271 q 746 170 848 170 l 678 170 q 610 102 610 170 l 610 -34 l 882 -34 l 882 -68 l 543 -68 l 543 102 q 644 203 543 203 l 746 203 q 814 271 814 203 l 814 339 q 746 407 814 407 l 576 407 z "},"¾":{"ha":949,"x_min":0,"x_max":882,"o":"m 68 0 l 610 1017 l 678 1017 l 434 543 q 475 475 502 543 l 203 0 l 68 0 m 882 -68 l 814 -68 l 814 170 l 644 170 q 543 271 543 170 l 543 441 l 576 441 l 576 271 q 644 203 576 203 l 746 203 l 814 203 l 814 271 l 814 441 l 848 441 l 848 203 q 882 170 882 203 l 882 -68 m 34 1051 l 34 1085 l 203 1085 q 305 983 305 1085 l 305 916 q 271 831 305 848 q 339 746 339 814 l 339 678 q 237 576 339 576 l 0 576 l 0 610 l 203 610 q 271 678 271 610 l 271 746 q 203 814 271 814 l 68 814 l 68 848 l 203 848 q 271 916 271 848 l 271 983 q 203 1051 271 1051 l 34 1051 z "},"¿":{"ha":678,"x_min":0,"x_max":610,"o":"m 407 68 q 475 203 475 68 l 610 203 q 407 0 610 0 l 203 0 q 0 203 0 0 l 0 339 q 271 543 0 543 q 339 678 339 543 l 339 814 l 407 814 l 407 678 q 271 475 407 475 l 271 475 q 136 339 136 475 l 136 203 q 203 68 136 68 l 407 68 m 339 949 l 339 1017 l 407 1017 l 407 949 l 339 949 z "},"À":{"ha":746,"x_min":0,"x_max":678,"o":"m 136 0 l 0 0 l 0 475 q 68 543 0 543 l 68 949 q 136 1017 68 1017 l 543 1017 q 610 949 610 1017 l 610 543 q 678 475 678 543 l 678 0 l 543 0 l 543 407 q 475 475 543 475 l 203 475 q 136 407 136 475 l 136 0 m 136 610 q 203 543 136 543 l 475 543 q 543 610 543 543 l 543 882 q 475 949 543 949 l 203 949 q 136 882 136 949 l 136 610 m 271 1356 l 339 1153 l 271 1153 l 203 1356 l 271 1356 z "},"Á":{"ha":746,"x_min":0,"x_max":678,"o":"m 136 0 l 0 0 l 0 475 q 68 543 0 543 l 68 949 q 136 1017 68 1017 l 543 1017 q 610 949 610 1017 l 610 543 q 678 475 678 543 l 678 0 l 543 0 l 543 407 q 475 475 543 475 l 203 475 q 136 407 136 475 l 136 0 m 136 610 q 203 543 136 543 l 475 543 q 543 610 543 543 l 543 882 q 475 949 543 949 l 203 949 q 136 882 136 949 l 136 610 m 475 1356 l 407 1153 l 339 1153 l 407 1356 l 475 1356 z "},"Â":{"ha":746,"x_min":0,"x_max":678,"o":"m 136 0 l 0 0 l 0 475 q 68 543 0 543 l 68 949 q 136 1017 68 1017 l 543 1017 q 610 949 610 1017 l 610 543 q 678 475 678 543 l 678 0 l 543 0 l 543 407 q 475 475 543 475 l 203 475 q 136 407 136 475 l 136 0 m 136 610 q 203 543 136 543 l 475 543 q 543 610 543 543 l 543 882 q 475 949 543 949 l 203 949 q 136 882 136 949 l 136 610 m 339 1356 l 271 1153 l 203 1153 l 271 1356 l 339 1356 m 407 1356 l 475 1153 l 407 1153 l 339 1356 l 407 1356 z "},"Ã":{"ha":746,"x_min":0,"x_max":678,"o":"m 136 0 l 0 0 l 0 475 q 68 543 0 543 l 68 949 q 136 1017 68 1017 l 543 1017 q 610 949 610 1017 l 610 543 q 678 475 678 543 l 678 0 l 543 0 l 543 407 q 475 475 543 475 l 203 475 q 136 407 136 475 l 136 0 m 136 610 q 203 543 136 543 l 475 543 q 543 610 543 543 l 543 882 q 475 949 543 949 l 203 949 q 136 882 136 949 l 136 610 m 136 1164 q 347 1249 241 1280 q 559 1249 453 1174 q 347 1164 453 1121 q 136 1164 241 1227 z "},"Ä":{"ha":746,"x_min":0,"x_max":678,"o":"m 136 0 l 0 0 l 0 475 q 68 543 0 543 l 68 949 q 136 1017 68 1017 l 543 1017 q 610 949 610 1017 l 610 543 q 678 475 678 543 l 678 0 l 543 0 l 543 407 q 475 475 543 475 l 203 475 q 136 407 136 475 l 136 0 m 136 610 q 203 543 136 543 l 475 543 q 543 610 543 543 l 543 882 q 475 949 543 949 l 203 949 q 136 882 136 949 l 136 610 m 271 1221 l 271 1153 l 203 1153 l 203 1221 l 271 1221 m 475 1221 l 475 1153 l 407 1153 l 407 1221 l 475 1221 z "},"Å":{"ha":746,"x_min":0,"x_max":678,"o":"m 136 0 l 0 0 l 0 475 q 68 543 0 543 l 68 949 q 136 1017 68 1017 l 543 1017 q 610 949 610 1017 l 610 543 q 678 475 678 543 l 678 0 l 543 0 l 543 407 q 475 475 543 475 l 203 475 q 136 407 136 475 l 136 0 m 136 610 q 203 543 136 543 l 475 543 q 543 610 543 543 l 543 882 q 475 949 543 949 l 203 949 q 136 882 136 949 l 136 610 m 342 1221 q 414 1191 385 1221 q 444 1119 444 1161 q 414 1047 444 1077 q 342 1017 385 1017 q 271 1047 300 1017 q 241 1119 241 1077 q 271 1191 241 1161 q 342 1221 300 1221 m 410 1118 q 390 1166 410 1146 q 342 1186 370 1186 q 294 1166 314 1186 q 274 1118 274 1146 q 294 1070 274 1090 q 342 1050 314 1050 q 390 1070 370 1050 q 410 1118 410 1090 z "},"Æ":{"ha":1221,"x_min":0,"x_max":1153,"o":"m 136 0 l 0 0 l 0 475 q 68 543 0 543 l 68 949 q 136 1017 68 1017 l 543 1017 q 610 949 610 1017 l 610 543 q 678 475 678 543 l 678 0 l 543 0 l 543 407 q 475 475 543 475 l 203 475 q 136 407 136 475 l 136 0 m 136 610 q 203 543 136 543 l 475 543 q 543 610 543 543 l 543 882 q 475 949 543 949 l 203 949 q 136 882 136 949 l 136 610 m 1153 0 l 475 0 l 475 475 q 543 543 475 543 l 543 1017 l 1085 1017 l 1085 949 l 610 949 l 610 543 l 1017 543 l 1017 475 l 610 475 l 610 68 l 1153 68 l 1153 0 z "},"Ç":{"ha":746,"x_min":0,"x_max":678,"o":"m 407 0 l 407 -68 q 543 -203 543 -68 q 407 -339 543 -339 l 203 -339 l 203 -271 l 407 -271 q 475 -203 475 -271 q 407 -136 475 -136 l 271 -136 l 271 0 l 203 0 q 0 203 0 0 l 0 475 q 68 543 0 543 l 68 814 q 271 1017 68 1017 l 610 1017 l 610 949 l 271 949 q 136 814 136 949 l 136 203 q 203 68 136 68 l 678 68 l 678 0 l 407 0 z "},"È":{"ha":746,"x_min":0,"x_max":678,"o":"m 678 0 l 0 0 l 0 475 q 68 543 0 543 l 68 1017 l 610 1017 l 610 949 l 136 949 l 136 543 l 543 543 l 543 475 l 136 475 l 136 68 l 678 68 l 678 0 m 271 1356 l 339 1153 l 271 1153 l 203 1356 l 271 1356 z "},"É":{"ha":746,"x_min":0,"x_max":678,"o":"m 678 0 l 0 0 l 0 475 q 68 543 0 543 l 68 1017 l 610 1017 l 610 949 l 136 949 l 136 543 l 543 543 l 543 475 l 136 475 l 136 68 l 678 68 l 678 0 m 475 1356 l 407 1153 l 339 1153 l 407 1356 l 475 1356 z "},"Ê":{"ha":746,"x_min":0,"x_max":678,"o":"m 678 0 l 0 0 l 0 475 q 68 543 0 543 l 68 1017 l 610 1017 l 610 949 l 136 949 l 136 543 l 543 543 l 543 475 l 136 475 l 136 68 l 678 68 l 678 0 m 339 1356 l 271 1153 l 203 1153 l 271 1356 l 339 1356 m 407 1356 l 475 1153 l 407 1153 l 339 1356 l 407 1356 z "},"Ë":{"ha":746,"x_min":0,"x_max":678,"o":"m 678 0 l 0 0 l 0 475 q 68 543 0 543 l 68 1017 l 610 1017 l 610 949 l 136 949 l 136 543 l 543 543 l 543 475 l 136 475 l 136 68 l 678 68 l 678 0 m 271 1221 l 271 1153 l 203 1153 l 203 1221 l 271 1221 m 475 1221 l 475 1153 l 407 1153 l 407 1221 l 475 1221 z "},"Ì":{"ha":271,"x_min":0,"x_max":203,"o":"m 203 0 l 68 0 l 68 1017 l 136 1017 l 136 543 q 203 475 203 543 l 203 0 m 68 1356 l 136 1153 l 68 1153 l 0 1356 l 68 1356 z "},"Í":{"ha":203,"x_min":0,"x_max":136,"o":"m 136 0 l 0 0 l 0 1017 l 68 1017 l 68 543 q 136 475 136 543 l 136 0 m 136 1356 l 68 1153 l 0 1153 l 68 1356 l 136 1356 z "},"Î":{"ha":339,"x_min":0,"x_max":271,"o":"m 203 0 l 68 0 l 68 1017 l 136 1017 l 136 543 q 203 475 203 543 l 203 0 m 136 1356 l 68 1153 l 0 1153 l 68 1356 l 136 1356 m 203 1356 l 271 1153 l 203 1153 l 136 1356 l 203 1356 z "},"Ï":{"ha":339,"x_min":0,"x_max":271,"o":"m 203 0 l 68 0 l 68 1017 l 136 1017 l 136 543 q 203 475 203 543 l 203 0 m 68 1221 l 68 1153 l 0 1153 l 0 1221 l 68 1221 m 271 1221 l 271 1153 l 203 1153 l 203 1221 l 271 1221 z "},"Ð":{"ha":814,"x_min":0,"x_max":746,"o":"m 68 0 l 68 475 l 0 475 l 0 543 l 136 543 l 136 1017 l 475 1017 q 678 814 678 1017 l 678 543 q 746 475 746 543 l 746 203 q 543 0 746 0 l 68 0 m 407 543 l 407 475 l 203 475 l 203 68 l 475 68 q 610 203 610 68 l 610 814 q 475 949 610 949 l 203 949 l 203 543 l 407 543 z "},"Ñ":{"ha":746,"x_min":0,"x_max":678,"o":"m 136 0 l 0 0 l 0 475 q 68 543 0 543 l 68 1017 l 136 1017 l 543 136 l 543 1017 l 610 1017 l 610 543 q 678 475 678 543 l 678 0 l 543 0 l 136 882 l 136 0 m 136 1164 q 347 1249 241 1280 q 559 1249 453 1174 q 347 1164 453 1121 q 136 1164 241 1227 z "},"Ò":{"ha":746,"x_min":0,"x_max":678,"o":"m 203 0 q 0 203 0 0 l 0 475 q 68 543 0 543 l 68 814 q 271 1017 68 1017 l 407 1017 q 610 814 610 1017 l 610 543 q 678 475 678 543 l 678 203 q 475 0 678 0 l 203 0 m 136 203 q 203 68 136 68 l 475 68 q 543 203 543 68 l 543 678 l 543 814 q 407 949 543 949 l 271 949 q 136 882 136 949 l 136 203 m 271 1356 l 339 1153 l 271 1153 l 203 1356 l 271 1356 z "},"Ó":{"ha":746,"x_min":0,"x_max":678,"o":"m 203 0 q 0 203 0 0 l 0 475 q 68 543 0 543 l 68 814 q 271 1017 68 1017 l 407 1017 q 610 814 610 1017 l 610 543 q 678 475 678 543 l 678 203 q 475 0 678 0 l 203 0 m 136 203 q 203 68 136 68 l 475 68 q 543 203 543 68 l 543 678 l 543 814 q 407 949 543 949 l 271 949 q 136 882 136 949 l 136 203 m 475 1356 l 407 1153 l 339 1153 l 407 1356 l 475 1356 z "},"Ô":{"ha":746,"x_min":0,"x_max":678,"o":"m 203 0 q 0 203 0 0 l 0 475 q 68 543 0 543 l 68 814 q 271 1017 68 1017 l 407 1017 q 610 814 610 1017 l 610 543 q 678 475 678 543 l 678 203 q 475 0 678 0 l 203 0 m 136 203 q 203 68 136 68 l 475 68 q 543 203 543 68 l 543 678 l 543 814 q 407 949 543 949 l 271 949 q 136 882 136 949 l 136 203 m 339 1356 l 271 1153 l 203 1153 l 271 1356 l 339 1356 m 407 1356 l 475 1153 l 407 1153 l 339 1356 l 407 1356 z "},"Õ":{"ha":746,"x_min":0,"x_max":678,"o":"m 203 0 q 0 203 0 0 l 0 475 q 68 543 0 543 l 68 814 q 271 1017 68 1017 l 407 1017 q 610 814 610 1017 l 610 543 q 678 475 678 543 l 678 203 q 475 0 678 0 l 203 0 m 136 203 q 203 68 136 68 l 475 68 q 543 203 543 68 l 543 678 l 543 814 q 407 949 543 949 l 271 949 q 136 882 136 949 l 136 203 m 136 1164 q 347 1249 241 1280 q 559 1249 453 1174 q 347 1164 453 1121 q 136 1164 241 1227 z "},"Ö":{"ha":746,"x_min":0,"x_max":678,"o":"m 203 0 q 0 203 0 0 l 0 475 q 68 543 0 543 l 68 814 q 271 1017 68 1017 l 407 1017 q 610 814 610 1017 l 610 543 q 678 475 678 543 l 678 203 q 475 0 678 0 l 203 0 m 136 203 q 203 68 136 68 l 475 68 q 543 203 543 68 l 543 678 l 543 814 q 407 949 543 949 l 271 949 q 136 882 136 949 l 136 203 m 271 1221 l 271 1153 l 203 1153 l 203 1221 l 271 1221 m 475 1221 l 475 1153 l 407 1153 l 407 1221 l 475 1221 z "},"×":{"ha":543,"x_min":0,"x_max":479,"o":"m 240 590 l 431 782 l 479 734 l 288 542 l 479 350 l 384 254 l 240 398 l 96 254 l 0 350 l 192 542 l 0 734 l 48 782 l 240 590 z "},"Ø":{"ha":882,"x_min":0,"x_max":814,"o":"m 814 1017 l 677 832 q 678 814 678 823 l 678 543 q 746 475 746 543 l 746 203 q 543 0 746 0 l 271 0 q 111 59 161 0 l 68 0 l 0 0 l 81 111 q 68 203 68 151 l 68 475 q 136 543 68 543 l 136 814 q 339 1017 136 1017 l 475 1017 q 665 906 625 1017 l 746 1017 l 814 1017 m 271 68 l 543 68 q 610 203 610 68 l 610 740 l 203 185 q 271 68 208 68 m 475 949 l 339 949 q 203 882 203 949 l 203 277 l 610 831 q 475 949 601 949 z "},"Ù":{"ha":746,"x_min":0,"x_max":678,"o":"m 136 1017 l 68 1017 l 68 543 q 0 475 0 543 l 0 203 q 203 0 0 0 l 475 0 q 678 203 678 0 l 678 475 q 610 543 678 543 l 610 1017 l 543 1017 l 543 203 q 475 68 543 68 l 203 68 q 136 203 136 68 l 136 1017 m 271 1356 l 339 1153 l 271 1153 l 203 1356 l 271 1356 z "},"Ú":{"ha":746,"x_min":0,"x_max":678,"o":"m 136 1017 l 68 1017 l 68 543 q 0 475 0 543 l 0 203 q 203 0 0 0 l 475 0 q 678 203 678 0 l 678 475 q 610 543 678 543 l 610 1017 l 543 1017 l 543 203 q 475 68 543 68 l 203 68 q 136 203 136 68 l 136 1017 m 475 1356 l 407 1153 l 339 1153 l 407 1356 l 475 1356 z "},"Û":{"ha":746,"x_min":0,"x_max":678,"o":"m 136 1017 l 68 1017 l 68 543 q 0 475 0 543 l 0 203 q 203 0 0 0 l 475 0 q 678 203 678 0 l 678 475 q 610 543 678 543 l 610 1017 l 543 1017 l 543 203 q 475 68 543 68 l 203 68 q 136 203 136 68 l 136 1017 m 339 1356 l 271 1153 l 203 1153 l 271 1356 l 339 1356 m 407 1356 l 475 1153 l 407 1153 l 339 1356 l 407 1356 z "},"Ü":{"ha":746,"x_min":0,"x_max":678,"o":"m 136 1017 l 68 1017 l 68 543 q 0 475 0 543 l 0 203 q 203 0 0 0 l 475 0 q 678 203 678 0 l 678 475 q 610 543 678 543 l 610 1017 l 543 1017 l 543 203 q 475 68 543 68 l 203 68 q 136 203 136 68 l 136 1017 m 271 1221 l 271 1153 l 203 1153 l 203 1221 l 271 1221 m 475 1221 l 475 1153 l 407 1153 l 407 1221 l 475 1221 z "},"Ý":{"ha":746,"x_min":0,"x_max":678,"o":"m 0 1017 l 68 1017 l 68 678 q 203 543 68 543 l 543 543 l 543 1017 l 610 1017 l 610 543 q 678 475 678 543 l 678 203 q 475 0 678 0 l 68 0 l 68 68 l 407 68 q 543 203 543 68 l 543 475 l 203 475 q 0 678 0 475 l 0 1017 m 475 1356 l 407 1153 l 339 1153 l 407 1356 l 475 1356 z "},"Þ":{"ha":814,"x_min":0,"x_max":746,"o":"m 0 475 q 68 543 0 543 l 68 1017 l 136 1017 l 136 814 l 475 814 q 678 610 678 814 l 678 543 q 746 475 746 543 l 746 407 q 543 203 746 203 l 136 203 l 136 0 l 0 0 l 0 475 m 475 271 q 610 407 610 271 l 610 610 q 475 746 610 746 l 136 746 l 136 271 l 475 271 z "},"ß":{"ha":746,"x_min":0,"x_max":678,"o":"m 136 0 l 0 0 l 0 475 q 68 543 0 543 l 68 814 q 271 1017 68 1017 l 339 1017 q 543 814 543 1017 l 543 543 q 678 339 678 543 l 678 203 q 407 0 678 0 l 271 0 l 271 68 l 407 68 q 543 203 543 68 l 543 339 q 407 475 543 475 l 271 475 l 271 543 l 407 543 q 475 678 475 543 l 475 814 q 339 949 475 949 l 271 949 q 136 814 136 949 l 136 0 z "},"à":{"ha":678,"x_min":0,"x_max":610,"o":"m 475 746 l 271 746 q 136 610 136 746 l 136 203 q 203 68 136 68 l 475 68 l 475 746 m 203 0 q 0 203 0 0 l 0 475 q 68 543 0 543 l 68 610 q 271 814 68 814 l 543 814 l 543 543 q 610 475 610 543 l 610 0 l 203 0 m 203 1153 l 271 949 l 203 949 l 136 1153 l 203 1153 z "},"á":{"ha":678,"x_min":0,"x_max":610,"o":"m 475 746 l 271 746 q 136 610 136 746 l 136 203 q 203 68 136 68 l 475 68 l 475 746 m 203 0 q 0 203 0 0 l 0 475 q 68 543 0 543 l 68 610 q 271 814 68 814 l 543 814 l 543 543 q 610 475 610 543 l 610 0 l 203 0 m 475 1153 l 407 949 l 339 949 l 407 1153 l 475 1153 z "},"â":{"ha":678,"x_min":0,"x_max":610,"o":"m 475 746 l 271 746 q 136 610 136 746 l 136 203 q 203 68 136 68 l 475 68 l 475 746 m 203 0 q 0 203 0 0 l 0 475 q 68 543 0 543 l 68 610 q 271 814 68 814 l 543 814 l 543 543 q 610 475 610 543 l 610 0 l 203 0 m 304 1153 l 236 949 l 168 949 l 236 1153 l 304 1153 m 372 1153 l 439 949 l 372 949 l 304 1153 l 372 1153 z "},"ã":{"ha":678,"x_min":0,"x_max":610,"o":"m 475 746 l 271 746 q 136 610 136 746 l 136 203 q 203 68 136 68 l 475 68 l 475 746 m 203 0 q 0 203 0 0 l 0 475 q 68 543 0 543 l 68 610 q 271 814 68 814 l 543 814 l 543 543 q 610 475 610 543 l 610 0 l 203 0 m 119 960 q 330 1045 224 1077 q 543 1045 436 970 q 330 960 436 918 q 119 960 224 1024 z "},"ä":{"ha":678,"x_min":0,"x_max":610,"o":"m 475 746 l 271 746 q 136 610 136 746 l 136 203 q 203 68 136 68 l 475 68 l 475 746 m 203 0 q 0 203 0 0 l 0 475 q 68 543 0 543 l 68 610 q 271 814 68 814 l 543 814 l 543 543 q 610 475 610 543 l 610 0 l 203 0 m 235 1017 l 235 949 l 168 949 l 168 1017 l 235 1017 m 439 1017 l 439 949 l 371 949 l 371 1017 l 439 1017 z "},"å":{"ha":678,"x_min":0,"x_max":610,"o":"m 475 746 l 271 746 q 136 610 136 746 l 136 203 q 203 68 136 68 l 475 68 l 475 746 m 203 0 q 0 203 0 0 l 0 475 q 68 543 0 543 l 68 610 q 271 814 68 814 l 543 814 l 543 543 q 610 475 610 543 l 610 0 l 203 0 m 305 1153 q 377 1123 347 1153 q 407 1051 407 1093 q 377 979 407 1009 q 305 949 347 949 q 233 979 263 949 q 203 1051 203 1009 q 233 1123 203 1093 q 305 1153 263 1153 m 372 1050 q 352 1098 372 1078 q 304 1118 332 1118 q 257 1098 277 1118 q 237 1050 237 1078 q 257 1003 237 1023 q 304 983 277 983 q 352 1003 332 983 q 372 1050 372 1023 z "},"æ":{"ha":1153,"x_min":0,"x_max":1085,"o":"m 475 746 l 271 746 q 136 610 136 746 l 136 203 q 203 68 136 68 l 475 68 l 475 746 m 203 0 q 0 203 0 0 l 0 475 q 68 543 0 543 l 68 610 q 271 814 68 814 l 543 814 l 543 543 q 610 475 610 543 l 610 0 l 203 0 m 678 0 q 475 203 475 0 l 475 475 q 543 543 475 543 l 543 610 q 746 814 543 814 l 814 814 q 1017 610 1017 814 l 1017 543 q 1085 475 1085 543 l 1085 339 l 610 339 l 610 203 q 746 68 610 68 l 1017 68 l 1017 0 l 678 0 m 610 407 l 949 407 l 949 610 q 814 746 949 746 l 746 746 q 610 610 610 746 l 610 407 z "},"ç":{"ha":678,"x_min":0,"x_max":610,"o":"m 407 0 l 407 -68 q 543 -203 543 -68 q 407 -339 543 -339 l 203 -339 l 203 -271 l 407 -271 q 475 -203 475 -271 q 407 -136 475 -136 l 271 -136 l 271 0 l 203 0 q 0 203 0 0 l 0 475 q 68 543 0 543 l 68 610 q 271 814 68 814 l 610 814 l 610 746 l 271 746 q 136 610 136 746 l 136 203 q 203 68 136 68 l 610 68 l 610 0 l 407 0 z "},"è":{"ha":678,"x_min":0,"x_max":610,"o":"m 543 0 l 543 68 l 271 68 q 136 203 136 68 l 136 339 l 610 339 l 610 475 q 543 543 610 543 l 543 610 q 339 814 543 814 l 271 814 q 68 610 68 814 l 68 543 q 0 475 0 543 l 0 203 q 203 0 0 0 l 543 0 m 136 610 q 271 746 136 746 l 339 746 q 475 610 475 746 l 475 407 l 136 407 l 136 610 m 203 1153 l 271 949 l 203 949 l 136 1153 l 203 1153 z "},"é":{"ha":678,"x_min":0,"x_max":610,"o":"m 543 0 l 543 68 l 271 68 q 136 203 136 68 l 136 339 l 610 339 l 610 475 q 543 543 610 543 l 543 610 q 339 814 543 814 l 271 814 q 68 610 68 814 l 68 543 q 0 475 0 543 l 0 203 q 203 0 0 0 l 543 0 m 136 610 q 271 746 136 746 l 339 746 q 475 610 475 746 l 475 407 l 136 407 l 136 610 m 475 1153 l 407 949 l 339 949 l 407 1153 l 475 1153 z "},"ê":{"ha":678,"x_min":0,"x_max":610,"o":"m 543 0 l 543 68 l 271 68 q 136 203 136 68 l 136 339 l 610 339 l 610 475 q 543 543 610 543 l 543 610 q 339 814 543 814 l 271 814 q 68 610 68 814 l 68 543 q 0 475 0 543 l 0 203 q 203 0 0 0 l 543 0 m 136 610 q 271 746 136 746 l 339 746 q 475 610 475 746 l 475 407 l 136 407 l 136 610 m 304 1153 l 236 949 l 168 949 l 236 1153 l 304 1153 m 372 1153 l 439 949 l 372 949 l 304 1153 l 372 1153 z "},"ë":{"ha":678,"x_min":0,"x_max":610,"o":"m 543 0 l 543 68 l 271 68 q 136 203 136 68 l 136 339 l 610 339 l 610 475 q 543 543 610 543 l 543 610 q 339 814 543 814 l 271 814 q 68 610 68 814 l 68 543 q 0 475 0 543 l 0 203 q 203 0 0 0 l 543 0 m 136 610 q 271 746 136 746 l 339 746 q 475 610 475 746 l 475 407 l 136 407 l 136 610 m 235 1017 l 235 949 l 168 949 l 168 1017 l 235 1017 m 439 1017 l 439 949 l 371 949 l 371 1017 l 439 1017 z "},"ì":{"ha":271,"x_min":0,"x_max":203,"o":"m 203 0 l 68 0 l 68 814 l 136 814 l 136 543 q 203 475 203 543 l 203 0 m 68 1153 l 136 949 l 68 949 l 0 1153 l 68 1153 z "},"í":{"ha":203,"x_min":0,"x_max":136,"o":"m 136 0 l 0 0 l 0 814 l 68 814 l 68 543 q 136 475 136 543 l 136 0 m 136 1153 l 68 949 l 0 949 l 68 1153 l 136 1153 z "},"î":{"ha":339,"x_min":0,"x_max":271,"o":"m 203 0 l 68 0 l 68 814 l 136 814 l 136 543 q 203 475 203 543 l 203 0 m 136 1153 l 68 949 l 0 949 l 68 1153 l 136 1153 m 203 1153 l 271 949 l 203 949 l 136 1153 l 203 1153 z "},"ï":{"ha":339,"x_min":0,"x_max":271,"o":"m 203 0 l 68 0 l 68 814 l 136 814 l 136 543 q 203 475 203 543 l 203 0 m 68 1017 l 68 949 l 0 949 l 0 1017 l 68 1017 m 271 1017 l 271 949 l 203 949 l 203 1017 l 271 1017 z "},"ð":{"ha":678,"x_min":0,"x_max":610,"o":"m 543 543 q 610 475 610 543 l 610 203 q 407 0 610 0 l 203 0 q 0 203 0 0 l 0 475 q 68 543 0 543 l 68 610 q 271 814 68 814 l 339 814 q 475 777 425 814 l 475 814 q 339 949 475 949 l 271 949 l 271 1017 l 339 1017 q 543 814 543 1017 l 543 543 m 475 678 q 339 746 475 746 l 271 746 q 136 610 136 746 l 136 203 q 271 68 136 68 l 339 68 q 475 203 475 68 l 475 678 z "},"ñ":{"ha":678,"x_min":0,"x_max":610,"o":"m 136 610 l 136 0 l 0 0 l 0 475 q 68 543 0 543 l 68 814 l 136 814 l 136 777 q 271 814 185 814 l 339 814 q 543 610 543 814 l 543 543 q 610 475 610 543 l 610 0 l 475 0 l 475 610 q 339 746 475 746 l 271 746 q 136 610 136 746 m 119 960 q 330 1045 224 1077 q 543 1045 436 970 q 330 960 436 918 q 119 960 224 1024 z "},"ò":{"ha":678,"x_min":0,"x_max":610,"o":"m 203 0 q 0 203 0 0 l 0 475 q 68 543 0 543 l 68 610 q 271 814 68 814 l 339 814 q 543 610 543 814 l 543 543 q 610 475 610 543 l 610 203 q 407 0 610 0 l 203 0 m 136 203 q 203 68 136 68 l 407 68 q 475 203 475 68 l 475 610 q 339 746 475 746 l 271 746 q 136 678 136 746 l 136 203 m 203 1153 l 271 949 l 203 949 l 136 1153 l 203 1153 z "},"ó":{"ha":678,"x_min":0,"x_max":610,"o":"m 203 0 q 0 203 0 0 l 0 475 q 68 543 0 543 l 68 610 q 271 814 68 814 l 339 814 q 543 610 543 814 l 543 543 q 610 475 610 543 l 610 203 q 407 0 610 0 l 203 0 m 136 203 q 203 68 136 68 l 407 68 q 475 203 475 68 l 475 610 q 339 746 475 746 l 271 746 q 136 678 136 746 l 136 203 m 475 1153 l 407 949 l 339 949 l 407 1153 l 475 1153 z "},"ô":{"ha":678,"x_min":0,"x_max":610,"o":"m 203 0 q 0 203 0 0 l 0 475 q 68 543 0 543 l 68 610 q 271 814 68 814 l 339 814 q 543 610 543 814 l 543 543 q 610 475 610 543 l 610 203 q 407 0 610 0 l 203 0 m 136 203 q 203 68 136 68 l 407 68 q 475 203 475 68 l 475 610 q 339 746 475 746 l 271 746 q 136 678 136 746 l 136 203 m 304 1153 l 236 949 l 168 949 l 236 1153 l 304 1153 m 372 1153 l 439 949 l 372 949 l 304 1153 l 372 1153 z "},"õ":{"ha":678,"x_min":0,"x_max":610,"o":"m 203 0 q 0 203 0 0 l 0 475 q 68 543 0 543 l 68 610 q 271 814 68 814 l 339 814 q 543 610 543 814 l 543 543 q 610 475 610 543 l 610 203 q 407 0 610 0 l 203 0 m 136 203 q 203 68 136 68 l 407 68 q 475 203 475 68 l 475 610 q 339 746 475 746 l 271 746 q 136 678 136 746 l 136 203 m 119 960 q 330 1045 224 1077 q 543 1045 436 970 q 330 960 436 918 q 119 960 224 1024 z "},"ö":{"ha":678,"x_min":0,"x_max":610,"o":"m 203 0 q 0 203 0 0 l 0 475 q 68 543 0 543 l 68 610 q 271 814 68 814 l 339 814 q 543 610 543 814 l 543 543 q 610 475 610 543 l 610 203 q 407 0 610 0 l 203 0 m 136 203 q 203 68 136 68 l 407 68 q 475 203 475 68 l 475 610 q 339 746 475 746 l 271 746 q 136 678 136 746 l 136 203 m 235 1017 l 235 949 l 168 949 l 168 1017 l 235 1017 m 439 1017 l 439 949 l 371 949 l 371 1017 l 439 1017 z "},"÷":{"ha":678,"x_min":0,"x_max":610,"o":"m 610 543 l 610 475 l 0 475 l 0 543 l 610 543 m 339 746 l 339 678 l 271 678 l 271 746 l 339 746 m 407 339 l 407 271 l 271 271 l 271 339 l 407 339 z "},"ø":{"ha":814,"x_min":0,"x_max":746,"o":"m 746 882 l 603 681 q 610 610 610 650 l 610 543 q 678 475 678 543 l 678 203 q 475 0 678 0 l 271 0 q 140 33 189 0 l 68 -68 l 0 -68 l 100 73 q 68 203 68 121 l 68 475 q 136 543 68 543 l 136 610 q 339 814 136 814 l 407 814 q 577 741 528 814 l 678 882 l 746 882 m 271 68 l 475 68 q 543 203 543 68 l 543 597 l 210 132 q 271 68 224 68 m 407 746 l 339 746 q 203 678 203 746 l 203 216 l 532 676 q 407 746 504 746 z "},"ù":{"ha":678,"x_min":0,"x_max":610,"o":"m 136 814 l 68 814 l 68 543 q 0 475 0 543 l 0 203 q 203 0 0 0 l 407 0 q 610 203 610 0 l 610 475 q 543 543 610 543 l 543 814 l 475 814 l 475 203 q 407 68 475 68 l 203 68 q 136 203 136 68 l 136 814 m 203 1153 l 271 949 l 203 949 l 136 1153 l 203 1153 z "},"ú":{"ha":678,"x_min":0,"x_max":610,"o":"m 136 814 l 68 814 l 68 543 q 0 475 0 543 l 0 203 q 203 0 0 0 l 407 0 q 610 203 610 0 l 610 475 q 543 543 610 543 l 543 814 l 475 814 l 475 203 q 407 68 475 68 l 203 68 q 136 203 136 68 l 136 814 m 475 1153 l 407 949 l 339 949 l 407 1153 l 475 1153 z "},"û":{"ha":678,"x_min":0,"x_max":610,"o":"m 136 814 l 68 814 l 68 543 q 0 475 0 543 l 0 203 q 203 0 0 0 l 407 0 q 610 203 610 0 l 610 475 q 543 543 610 543 l 543 814 l 475 814 l 475 203 q 407 68 475 68 l 203 68 q 136 203 136 68 l 136 814 m 304 1153 l 236 949 l 168 949 l 236 1153 l 304 1153 m 372 1153 l 439 949 l 372 949 l 304 1153 l 372 1153 z "},"ü":{"ha":678,"x_min":0,"x_max":610,"o":"m 136 814 l 68 814 l 68 543 q 0 475 0 543 l 0 203 q 203 0 0 0 l 407 0 q 610 203 610 0 l 610 475 q 543 543 610 543 l 543 814 l 475 814 l 475 203 q 407 68 475 68 l 203 68 q 136 203 136 68 l 136 814 m 235 1017 l 235 949 l 168 949 l 168 1017 l 235 1017 m 439 1017 l 439 949 l 371 949 l 371 1017 l 439 1017 z "},"ý":{"ha":678,"x_min":0,"x_max":610,"o":"m 475 0 q 339 -136 475 -136 l 68 -136 l 68 -203 l 407 -203 q 610 0 610 -203 l 610 475 q 543 543 610 543 l 543 814 l 475 814 l 475 203 q 407 68 475 68 l 203 68 q 136 203 136 68 l 136 814 l 68 814 l 68 543 q 0 475 0 543 l 0 203 q 203 0 0 0 l 407 0 q 475 7 444 0 l 475 0 m 475 1153 l 407 949 l 339 949 l 407 1153 l 475 1153 z "},"þ":{"ha":678,"x_min":0,"x_max":610,"o":"m 136 68 l 407 68 q 475 203 475 68 l 475 610 q 339 746 475 746 l 271 746 q 136 678 136 746 l 136 68 m 0 475 q 68 543 0 543 l 68 1017 l 136 1017 l 136 777 q 271 814 185 814 l 339 814 q 543 610 543 814 l 543 543 q 610 475 610 543 l 610 203 q 407 0 610 0 l 136 0 l 136 -203 l 0 -203 l 0 475 z "},"ÿ":{"ha":678,"x_min":0,"x_max":610,"o":"m 475 0 q 339 -136 475 -136 l 68 -136 l 68 -203 l 407 -203 q 610 0 610 -203 l 610 475 q 543 543 610 543 l 543 814 l 475 814 l 475 203 q 407 68 475 68 l 203 68 q 136 203 136 68 l 136 814 l 68 814 l 68 543 q 0 475 0 543 l 0 203 q 203 0 0 0 l 407 0 q 475 7 444 0 l 475 0 m 235 1017 l 235 949 l 168 949 l 168 1017 l 235 1017 m 439 1017 l 439 949 l 371 949 l 371 1017 l 439 1017 z "},"˜":{"ha":439,"x_min":18,"x_max":357,"o":"m 18 890 q 188 958 103 983 q 357 958 273 899 q 188 890 273 857 q 18 890 103 941 z "},"†":{"ha":610,"x_min":0,"x_max":543,"o":"m 339 0 l 203 0 l 203 1017 l 271 1017 l 271 543 q 339 475 339 543 l 339 0 m 543 814 l 543 746 l 0 746 l 0 814 l 543 814 z "},"‡":{"ha":610,"x_min":0,"x_max":543,"o":"m 339 0 l 203 0 l 203 1017 l 271 1017 l 271 543 q 339 475 339 543 l 339 0 m 543 814 l 543 746 l 0 746 l 0 814 l 543 814 m 543 271 l 543 203 l 0 203 l 0 271 l 543 271 z "}," ":{"ha":610,"x_min":0,"x_max":0,"o":""},"-":{"ha":678,"x_min":0,"x_max":610,"o":"m 610 543 l 610 475 l 0 475 l 0 543 l 610 543 z "},"•":{"ha":271,"x_min":0,"x_max":203,"o":"m 0 509 q 8 548 0 530 q 30 581 16 567 q 62 602 43 594 q 102 610 81 610 q 141 602 123 610 q 174 581 160 594 q 195 548 187 567 q 203 509 203 530 q 195 469 203 488 q 174 437 187 450 q 141 415 160 423 q 102 407 123 407 q 62 415 81 407 q 30 437 43 423 q 8 469 16 450 q 0 509 0 488 z "},"—":{"ha":746,"x_min":0,"x_max":678,"o":"m 678 543 l 678 475 l 0 475 l 0 543 l 678 543 z "},"–":{"ha":679,"x_min":0,"x_max":610,"o":"m 610 543 l 610 475 l 0 475 l 0 543 l 610 543 z "},"ˆ":{"ha":475,"x_min":0,"x_max":407,"o":"m 68 746 l 0 746 l 203 1017 l 407 746 l 339 746 l 203 921 l 68 746 z "},"‰":{"ha":1221,"x_min":0,"x_max":1153,"o":"m 0 0 l 543 1017 l 610 1017 l 366 543 q 407 475 434 543 l 136 0 l 0 0 m 543 0 l 475 0 q 407 68 407 0 l 407 271 q 475 339 407 339 l 678 339 q 746 271 746 339 l 746 68 q 678 0 746 0 l 543 0 m 203 886 q 136 950 203 949 q 68 882 68 950 q 136 814 68 814 q 203 886 203 814 m 643 176 q 575 239 643 243 q 507 172 507 239 q 575 104 507 104 q 643 176 643 104 m 0 949 q 68 1017 0 1017 l 203 1017 q 271 949 271 1017 l 271 814 q 203 746 271 746 l 68 746 q 0 814 0 746 l 0 949 m 949 0 l 882 0 q 814 68 814 0 l 814 271 q 882 339 814 339 l 1085 339 q 1153 271 1153 339 l 1153 68 q 1085 0 1153 0 l 949 0 m 1050 176 q 982 239 1050 243 q 914 172 914 239 q 982 104 914 104 q 1050 176 1050 104 z "},"…":{"ha":610,"x_min":0,"x_max":543,"o":"m 136 136 l 136 0 l 0 0 l 0 136 l 136 136 m 339 136 l 339 0 l 203 0 l 203 136 l 339 136 m 543 136 l 543 0 l 407 0 l 407 136 l 543 136 z "},"„":{"ha":406,"x_min":0,"x_max":339,"o":"m 68 203 q 136 136 136 203 l 136 68 q 68 -68 136 0 l 68 102 l 0 102 l 0 203 l 68 203 m 271 203 q 339 136 339 203 l 339 68 q 271 -68 339 0 l 271 102 l 203 102 l 203 203 l 271 203 z "},"’":{"ha":203,"x_min":0,"x_max":136,"o":"m 68 1017 q 136 949 136 1017 l 136 882 q 68 746 136 814 l 68 916 l 0 916 l 0 1017 l 68 1017 z "},"”":{"ha":406,"x_min":0,"x_max":339,"o":"m 68 1017 q 136 949 136 1017 l 136 882 q 68 746 136 814 l 68 916 l 0 916 l 0 1017 l 68 1017 m 271 1017 q 339 949 339 1017 l 339 882 q 271 746 339 814 l 271 916 l 203 916 l 203 1017 l 271 1017 z "},"‘":{"ha":203,"x_min":0,"x_max":136,"o":"m 68 916 q 0 984 0 916 l 0 1052 q 68 1187 0 1120 l 68 1017 l 136 1017 l 136 916 l 68 916 z "},"“":{"ha":406,"x_min":0,"x_max":339,"o":"m 68 916 q 0 984 0 916 l 0 1052 q 68 1187 0 1120 l 68 1017 l 136 1017 l 136 916 l 68 916 m 271 916 q 203 984 203 916 l 203 1052 q 271 1187 203 1120 l 271 1017 l 339 1017 l 339 916 l 271 916 z "},"€":{"ha":814,"x_min":0,"x_max":746,"o":"m 0 407 l 68 407 l 68 475 q 136 543 68 543 l 136 610 l 0 610 l 0 678 l 136 678 l 136 814 q 339 1017 136 1017 l 678 1017 l 678 949 l 339 949 q 203 814 203 949 l 203 678 l 610 678 l 610 610 l 203 610 l 203 407 l 610 407 l 610 339 l 203 339 l 203 203 q 271 68 203 68 l 746 68 l 746 0 l 271 0 q 68 203 68 0 l 68 339 l 0 339 l 0 407 z "},"š":{"ha":678,"x_min":0,"x_max":610,"o":"m 236 949 l 168 1153 l 236 1153 l 304 949 l 236 949 m 304 949 l 372 1153 l 439 1153 l 372 949 l 304 949 m 136 648 q 271 543 136 543 l 407 543 q 610 339 610 543 l 610 203 q 407 0 610 0 l 0 0 l 0 68 l 339 68 q 475 203 475 68 l 475 339 q 339 475 475 475 l 271 475 q 68 648 68 475 q 271 814 68 814 l 543 814 l 543 746 l 271 746 q 136 648 136 746 z "},"ž":{"ha":678,"x_min":0,"x_max":610,"o":"m 236 949 l 168 1153 l 236 1153 l 304 949 l 236 949 m 304 949 l 372 1153 l 439 1153 l 372 949 l 304 949 m 68 746 l 68 814 l 610 814 l 610 726 l 136 183 l 136 136 q 271 68 136 68 l 610 68 l 610 0 l 0 0 l 0 136 l 543 746 l 68 746 z "},"Ÿ":{"ha":746,"x_min":0,"x_max":678,"o":"m 271 1221 l 271 1153 l 203 1153 l 203 1221 l 271 1221 m 475 1221 l 475 1153 l 407 1153 l 407 1221 l 475 1221 m 0 1017 l 68 1017 l 68 678 q 203 543 68 543 l 543 543 l 543 1017 l 610 1017 l 610 543 q 678 475 678 543 l 678 203 q 475 0 678 0 l 68 0 l 68 68 l 407 68 q 543 203 543 68 l 543 475 l 203 475 q 0 678 0 475 l 0 1017 z "},"‚":{"ha":203,"x_min":0,"x_max":136,"o":"m 68 203 q 136 136 136 203 l 136 68 q 68 -68 136 0 l 68 102 l 0 102 l 0 203 l 68 203 z "},"Š":{"ha":746,"x_min":0,"x_max":678,"o":"m 271 1153 l 203 1356 l 271 1356 l 339 1153 l 271 1153 m 339 1153 l 407 1356 l 475 1356 l 407 1153 l 339 1153 m 271 949 l 610 949 l 610 1017 l 271 1017 q 68 814 68 1017 l 68 678 q 271 475 68 475 l 407 475 q 543 339 543 475 l 543 203 q 407 68 543 68 l 0 68 l 0 0 l 475 0 q 678 203 678 0 l 678 339 q 475 543 678 543 l 271 543 q 136 678 136 543 l 136 814 q 271 949 136 949 z "},"Ž":{"ha":746,"x_min":0,"x_max":678,"o":"m 271 1153 l 203 1356 l 271 1356 l 339 1153 l 271 1153 m 339 1153 l 407 1356 l 475 1356 l 407 1153 l 339 1153 m 68 949 l 68 1017 l 678 1017 l 678 929 l 136 203 l 136 136 q 271 68 136 68 l 678 68 l 678 0 l 0 0 l 0 136 l 610 949 l 68 949 z "},"Œ":{"ha":1289,"x_min":0,"x_max":1221,"o":"m 203 0 q 0 203 0 0 l 0 475 q 68 543 0 543 l 68 814 q 271 1017 68 1017 l 407 1017 q 610 814 610 1017 l 610 543 q 678 475 678 543 l 678 203 q 475 0 678 0 l 203 0 m 136 203 q 203 68 136 68 l 475 68 q 543 203 543 68 l 543 678 l 543 814 q 407 949 543 949 l 271 949 q 136 882 136 949 l 136 203 m 1221 -1 l 543 -1 l 543 474 q 610 542 543 542 l 610 1017 l 1153 1017 l 1153 949 l 678 949 l 678 542 l 1085 542 l 1085 474 l 678 474 l 678 67 l 1221 67 l 1221 -1 z "},"œ":{"ha":1153,"x_min":0,"x_max":1088,"o":"m 203 0 q 0 203 0 0 l 0 475 q 68 543 0 543 l 68 610 q 271 814 68 814 l 339 814 q 543 610 543 814 l 543 543 q 610 475 610 543 l 610 203 q 407 0 610 0 l 203 0 m 136 203 q 203 68 136 68 l 407 68 q 475 203 475 68 l 475 610 q 339 746 475 746 l 271 746 q 136 678 136 746 l 136 203 m 681 0 q 477 203 477 0 l 477 475 q 545 543 477 543 l 545 610 q 749 814 545 814 l 817 814 q 1020 610 1020 814 l 1020 543 q 1088 475 1088 543 l 1088 339 l 613 339 l 613 203 q 749 68 613 68 l 1020 68 l 1020 0 l 681 0 m 613 407 l 952 407 l 952 610 q 817 746 952 746 l 749 746 q 613 610 613 746 l 613 407 z "},"­":{"ha":611,"x_min":0,"x_max":543,"o":"m 543 543 l 543 475 l 0 475 l 0 543 l 543 543 z "},"™":{"ha":1356,"x_min":68,"x_max":1289,"o":"m 339 746 l 339 543 q 407 475 407 543 l 407 203 l 271 203 l 271 746 l 68 746 l 68 814 l 610 814 l 610 746 l 339 746 m 746 203 l 610 203 l 610 475 q 678 543 610 543 l 678 814 l 746 814 l 949 407 l 1153 814 l 1221 814 l 1221 543 q 1289 475 1289 543 l 1289 203 l 1153 203 l 1153 678 l 949 271 l 746 678 l 746 203 z "},"ƒ":{"ha":746,"x_min":0,"x_max":678,"o":"m 339 0 q 136 -203 339 -203 l 0 -203 l 0 -136 l 68 -136 q 203 0 203 -136 l 203 475 q 271 543 203 543 l 271 746 l 136 746 l 136 814 l 271 814 q 475 1017 271 1017 l 678 1017 l 678 949 l 475 949 q 339 814 339 949 l 543 814 l 543 746 l 339 746 l 339 0 z "},"‹":{"ha":440,"x_min":-34,"x_max":373,"o":"m 34 610 l 373 882 l 373 814 l 124 610 q 120 475 54 519 l 373 271 l 373 136 l 34 407 q 34 610 -34 517 z "},"›":{"ha":442,"x_min":0,"x_max":407,"o":"m 339 610 q 339 407 407 517 l 0 136 l 0 271 l 253 475 q 249 610 319 519 l 0 814 l 0 882 l 339 610 z "},"!":{"ha":203,"x_min":0,"x_max":136,"o":"m 136 203 l 0 203 l 0 1017 l 68 1017 l 68 543 q 136 475 136 543 l 136 203 m 136 136 l 136 0 l 0 0 l 0 136 l 136 136 z "}}}
